<svg id="Layer_1" data-name="Layer 1" xmlns="http://www.w3.org/2000/svg" viewBox="0 0 553.61 553.77"><defs><style>.cls-1{fill:#6f6e75;}.cls-2{fill:#72bf44;}</style></defs><circle class="cls-1" cx="276.81" cy="276.96" r="96.65"/><path class="cls-2" d="M531.26,617.61Z" transform="translate(-20.83 -143.98)"/><path class="cls-2" d="M574.28,461.2V628.09a69.5,69.5,0,0,1-69.5,69.5H337.9V599.53H476.22V461.2Z" transform="translate(-20.83 -143.98)"/><path class="cls-2" d="M257.22,599.69v98.06H90.33a69.5,69.5,0,0,1-69.5-69.5V461.36H118.9V599.69Z" transform="translate(-20.83 -143.98)"/><path class="cls-2" d="M257.22,144V242H118.9V380.36H20.83V213.48A69.5,69.5,0,0,1,90.33,144Z" transform="translate(-20.83 -143.98)"/><path class="cls-2" d="M574.44,213.64V380.53H476.38V242.2H338.06V144.14H504.94A69.49,69.49,0,0,1,574.44,213.64Z" transform="translate(-20.83 -143.98)"/><path class="cls-2" d="M118.9,242Z" transform="translate(-20.83 -143.98)"/></svg>